<svg xmlns="http://www.w3.org/2000/svg" xmlns:xlink="http://www.w3.org/1999/xlink" version="1.1" x="0px" y="0px" viewBox="0 0 48 60" style="enable-background:new 0 0 48 48;" xml:space="preserve"><style type="text/css">
	.st0{stroke:#000000;stroke-width:4;stroke-linecap:round;stroke-linejoin:round;stroke-miterlimit:10;}
</style><g><path d="M46.5,24.6c0-1.1-0.9-2-2-2h-5.4c0,0-0.1,0-0.1,0c-1.4,3.7-2.9,7.1-4.5,8.6c-1.9,1.7-4.4,2.6-7,2.6s-5.1-0.9-7-2.6   c-1.9-1.7-3-4.1-3-6.6c0-2.5,1.1-4.8,3-6.6c1.9-1.7,6.7-3.3,11.6-4.6V11c0-5.8-5.8-10.5-13-10.5c-4,0-7.7,1.4-10.2,3.9   C7,6.3,6,8.6,6.1,11c0,0.3,0,0.8,0,1.2l-1.7-0.9c-1-0.5-2.1-0.1-2.6,0.8c-0.5,1-0.1,2.1,0.8,2.6L4,15.6l-1.5,0.8   c-1,0.5-1.3,1.7-0.8,2.6c0.4,0.7,1,1,1.7,1c0.3,0,0.6-0.1,0.9-0.2l1.8-1c0.1,3.4,0.1,6.4,0.1,6.5c0.4,6.2,5.1,11.4,11.8,13.8v3.2   l-1.6,1.9c-0.7,0.8-0.6,2.1,0.3,2.8c0.4,0.3,0.8,0.4,1.2,0.4c0.6,0,1.1-0.2,1.5-0.7l2-2.5c0.3-0.4,0.4-0.8,0.4-1.2v-2.9   c1.4,0.2,2.8,0.4,4.3,0.4v1.8l-1.6,1.9c-0.7,0.8-0.6,2.1,0.3,2.8c0.4,0.3,0.8,0.4,1.2,0.4c0.6,0,1.1-0.2,1.5-0.7l2-2.5   c0.3-0.3,0.4-0.8,0.4-1.2v-2.8C39.5,38.9,46.5,32.4,46.5,24.6z M13.2,11.4c-1.1,0-2-0.9-2-2s0.9-2,2-2h0c1.1,0,2,0.9,2,2   S14.3,11.4,13.2,11.4z"/><path d="M21.4,24.6c0,1.4,0.6,2.7,1.7,3.7c1.2,1,2.7,1.6,4.4,1.6s3.2-0.6,4.4-1.6c1.3-1.2,3.3-5.9,5.2-12.2   c-7.2,1.7-12.6,3.6-13.9,4.8C22,21.9,21.4,23.2,21.4,24.6z"/></g><text x="0" y="63" fill="#000000" font-size="5px" font-weight="bold" font-family="'Helvetica Neue', Helvetica, Arial-Unicode, Arial, Sans-serif">Created by Vectors Market</text><text x="0" y="68" fill="#000000" font-size="5px" font-weight="bold" font-family="'Helvetica Neue', Helvetica, Arial-Unicode, Arial, Sans-serif">from the Noun Project</text></svg>