<svg xmlns="http://www.w3.org/2000/svg" xmlns:xlink="http://www.w3.org/1999/xlink" version="1.1" x="0px" y="0px" viewBox="0 0 68.148 90.185" enable-background="new 0 0 68.148 72.148" xml:space="preserve"><path d="M68.148,18.574c0-3.625-2.949-6.574-6.574-6.574c-3.066,0-5.641,2.113-6.365,4.957h-13.27  C41.215,14.113,38.641,12,35.574,12c-2.216,0-4.175,1.105-5.367,2.79L13.1,7.343c0.029-0.253,0.049-0.508,0.049-0.769  C13.148,2.949,10.199,0,6.574,0S0,2.949,0,6.574s2.949,6.574,6.574,6.574c2.483,0,4.648-1.385,5.767-3.422l16.838,7.348  C29.066,17.557,29,18.058,29,18.574c0,1.35,0.41,2.604,1.11,3.649L16.913,35.921C15.933,35.34,14.794,35,13.574,35  C9.949,35,7,37.949,7,41.574s2.949,6.574,6.574,6.574c0.41,0,0.809-0.043,1.198-0.114l3.613,11.796  C16.369,60.954,15,63.106,15,65.574c0,3.625,2.949,6.574,6.574,6.574s6.574-2.949,6.574-6.574S25.199,59,21.574,59  c-0.275,0-0.545,0.022-0.812,0.056l-3.662-11.942c1.71-1.093,2.88-2.951,3.025-5.091l7.896-1.019  c0.223,3.425,3.073,6.145,6.553,6.145c2.357,0,4.422-1.251,5.583-3.12l10.449,8.805C50.221,53.668,50,54.595,50,55.574  c0,3.625,2.949,6.574,6.574,6.574s6.574-2.949,6.574-6.574c0-3.066-2.113-5.642-4.958-6.365l3.88-24.086  C65.464,24.868,68.148,22.031,68.148,18.574z M6.574,10.648C4.328,10.648,2.5,8.82,2.5,6.574S4.328,2.5,6.574,2.5  s4.074,1.828,4.074,4.074S8.821,10.648,6.574,10.648z M25.648,65.574c0,2.246-1.828,4.074-4.074,4.074S17.5,67.82,17.5,65.574  s1.828-4.074,4.074-4.074S25.648,63.328,25.648,65.574z M61.574,14.5c2.246,0,4.074,1.828,4.074,4.074s-1.828,4.074-4.074,4.074  S57.5,20.82,57.5,18.574S59.328,14.5,61.574,14.5z M41.999,19.957h13.15c0.497,2.311,2.21,4.174,4.435,4.882l-3.902,24.229  c-0.472,0.064-0.926,0.179-1.361,0.338L40.044,23.381C41.012,22.48,41.711,21.296,41.999,19.957z M35.574,14.5  c2.246,0,4.074,1.828,4.074,4.074s-1.828,4.074-4.074,4.074c-2.247,0-4.074-1.828-4.074-4.074S33.328,14.5,35.574,14.5z   M13.574,45.648c-2.247,0-4.074-1.828-4.074-4.074s1.828-4.074,4.074-4.074s4.074,1.828,4.074,4.074S15.821,45.648,13.574,45.648z   M34.574,44.648c-2.247,0-4.074-1.828-4.074-4.074s1.828-4.074,4.074-4.074c2.246,0,4.074,1.828,4.074,4.074  S36.82,44.648,34.574,44.648z M34.574,34c-2.877,0-5.322,1.86-6.211,4.439l-8.54,1.102c-0.234-0.716-0.589-1.375-1.038-1.959  L31.87,24.001c1.056,0.723,2.331,1.147,3.705,1.147c0.827,0,1.616-0.16,2.347-0.44l14.258,25.991  c-0.036,0.033-0.072,0.064-0.108,0.099l-11-9.269c0.047-0.312,0.078-0.63,0.078-0.955C41.148,36.949,38.199,34,34.574,34z   M60.648,55.574c0,2.246-1.828,4.074-4.074,4.074S52.5,57.82,52.5,55.574s1.828-4.074,4.074-4.074S60.648,53.328,60.648,55.574z"/><text x="0" y="87.148" fill="#000000" font-size="5px" font-weight="bold" font-family="'Helvetica Neue', Helvetica, Arial-Unicode, Arial, Sans-serif">Created by Gurkenkoenig</text><text x="0" y="92.148" fill="#000000" font-size="5px" font-weight="bold" font-family="'Helvetica Neue', Helvetica, Arial-Unicode, Arial, Sans-serif">from the Noun Project</text></svg>