<svg xmlns="http://www.w3.org/2000/svg" viewBox="0 0 64 80" x="0px" y="0px"><title>Identity, Card, Id, Id Card, Identity Card</title><g><path d="M4,52H60a2,2,0,0,0,2-2V14a2,2,0,0,0-2-2H4a2,2,0,0,0-2,2V50A2,2,0,0,0,4,52ZM6,16H58V48H6Z"/><path d="M23.09,31.38a6,6,0,1,0-8.18,0A10.59,10.59,0,0,0,9,41a2,2,0,0,0,2,2H27a2,2,0,0,0,2-2A10.59,10.59,0,0,0,23.09,31.38ZM19,25a2,2,0,1,1-2,2A2,2,0,0,1,19,25ZM13.29,39A6.09,6.09,0,0,1,19,34.44,6.09,6.09,0,0,1,24.71,39Z"/><path d="M53,36H34a2,2,0,0,0,0,4H53a2,2,0,0,0,0-4Z"/><path d="M53,24H34a2,2,0,0,0,0,4H53a2,2,0,0,0,0-4Z"/></g><text x="0" y="79" fill="#000000" font-size="5px" font-weight="bold" font-family="'Helvetica Neue', Helvetica, Arial-Unicode, Arial, Sans-serif">Created by Dika Darma</text><text x="0" y="84" fill="#000000" font-size="5px" font-weight="bold" font-family="'Helvetica Neue', Helvetica, Arial-Unicode, Arial, Sans-serif">from the Noun Project</text></svg>