<svg xmlns="http://www.w3.org/2000/svg" xmlns:xlink="http://www.w3.org/1999/xlink" version="1.1" x="0px" y="0px" viewBox="0 0 100 125" enable-background="new 0 0 100 100" xml:space="preserve"><g><path d="M83.333,14.905H16.667c-5.464,0-9.909,4.445-9.909,9.91v36.637c0,5.464,4.445,9.909,9.909,9.909h20.048l11.771,12.918   c0.474,0.52,1.145,0.816,1.848,0.816c0.704,0,1.374-0.296,1.848-0.816l11.771-12.918h19.381c5.464,0,9.909-4.445,9.909-9.909   V24.814C93.243,19.35,88.797,14.905,83.333,14.905z M88.243,61.452c0,2.707-2.202,4.909-4.909,4.909H62.848   c-0.703,0-1.374,0.296-1.848,0.816L50.333,78.883L39.666,67.177c-0.474-0.52-1.145-0.816-1.848-0.816H16.667   c-2.707,0-4.909-2.202-4.909-4.909V24.814c0-2.707,2.202-4.91,4.909-4.91h66.667c2.707,0,4.909,2.203,4.909,4.91V61.452z"/><path d="M57.614,24.658c-2.648,0-5.188,0.85-7.282,2.417c-2.092-1.568-4.632-2.418-7.28-2.418c-3.248,0-6.307,1.266-8.615,3.567   c-4.663,4.67-4.792,12.098-0.303,16.901c0.099,0.107,0.198,0.213,0.304,0.319l14.833,14.833c0.293,0.293,0.677,0.439,1.061,0.439   s0.768-0.146,1.061-0.439l14.833-14.833c0.105-0.105,0.204-0.21,0.296-0.31c2.109-2.252,3.271-5.2,3.271-8.297   c0-3.262-1.267-6.322-3.567-8.615C63.922,25.923,60.864,24.658,57.614,24.658z"/></g><text x="0" y="115" fill="#000000" font-size="5px" font-weight="bold" font-family="'Helvetica Neue', Helvetica, Arial-Unicode, Arial, Sans-serif">Created by RD Design</text><text x="0" y="120" fill="#000000" font-size="5px" font-weight="bold" font-family="'Helvetica Neue', Helvetica, Arial-Unicode, Arial, Sans-serif">from the Noun Project</text></svg>